<svg width="72" height="20" viewBox="0 0 72 20" fill="none" xmlns="http://www.w3.org/2000/svg">
<path d="M8.27079 0.677152C14.792 0.18799 19.1254 5.54287 18.0258 11.9797C16.3693 21.6737 2.49015 21.9557 0.307926 12.6012C-1.03194 6.85498 2.26967 1.12603 8.27079 0.677152ZM15.8068 9.06771C15.3602 4.59332 11.1625 1.6785 6.89135 3.13447C0.695187 5.24938 0.859136 15.2513 7.19947 17.0324C10.3456 17.9158 13.6613 16.5663 15.0973 13.5507C15.1708 13.3982 15.462 12.7249 15.4704 12.6098C15.4874 12.3048 14.515 11.4502 14.2436 11.243C11.9681 9.50796 8.92942 9.4907 6.23838 9.98273L4.21728 10.4086C7.4256 7.75561 12.0756 7.31536 15.8068 9.06196V9.06771Z" fill="white"/>
<path d="M20.8243 0.587953C22.8651 0.677153 24.9993 0.472856 27.0289 0.587953C30.5284 0.783618 32.9339 2.44389 33.095 6.20756C33.2364 9.55112 30.8365 11.9825 27.6027 12.0717L32.9565 19.4178H29.8726L23.5351 10.5553C25.5958 10.2302 28.5299 10.9179 30.0083 9.00729C30.7941 7.99444 30.9128 6.17878 30.4125 5.00767C29.3581 2.53884 25.4883 2.88701 23.3315 2.86975V10.0806L23.4672 10.492L23.3259 10.6244L23.3315 19.4207H20.926L20.8243 19.3171V0.587953Z" fill="white"/>
<path d="M61.7608 0.587953V13.3838C61.8852 15.5649 62.4957 17.3202 64.9098 17.4871C67.7449 17.6827 68.5449 15.8584 68.6778 13.3148V0.587953H71.1144V13.7953C70.7695 17.9388 68.74 20.0221 64.5705 19.7602C60.8958 19.53 59.4287 16.7418 59.2507 13.3119V0.587953H61.7608Z" fill="white"/>
<path d="M56.2713 0.587953V2.86399H49.1564V8.86342H56.2713V11.0675H49.1564V17.0008H56.2713V19.412H46.6463V0.587953H56.2713Z" fill="white"/>
<path d="M38.1746 0.587953V17.0008H44.3765L44.4782 17.1015V19.3085L44.3765 19.412H35.7352V0.587953H38.1746Z" fill="white"/>
<path d="M61.2607 1.0879V13.3984L61.2617 13.4121C61.3252 14.5245 61.5138 15.6166 62.0557 16.4609C62.6213 17.3423 63.5305 17.8933 64.875 17.9863C66.4144 18.0926 67.5071 17.6477 68.2051 16.7315C68.8709 15.8574 69.1091 14.6369 69.1768 13.3408L69.1777 13.3281V1.0879H70.6143V13.7734C70.4451 15.7707 69.8774 17.1804 68.9346 18.0654C67.9964 18.9461 66.6012 19.3863 64.6016 19.2607C62.9021 19.1542 61.7568 18.4667 61.002 17.4395C60.235 16.3954 59.8388 14.9547 59.751 13.3008V1.0879H61.2607ZM8.30859 1.17579C11.4158 0.942831 13.9708 2.09928 15.624 4.05372C17.2809 6.01279 18.0606 8.8085 17.5332 11.8955C15.9694 21.0472 2.85427 21.3151 0.794922 12.4873C-0.490726 6.97292 2.67791 1.59717 8.30762 1.17579H8.30859ZM26.251 1.0586L27.001 1.08692C28.6857 1.18112 30.0414 1.62575 30.9883 2.43946C31.9225 3.24242 32.5198 4.45721 32.5957 6.22852C32.7249 9.28389 30.5533 11.4905 27.5889 11.5723L26.6387 11.5977L27.1982 12.3662L31.9736 18.918H30.1299L24.4453 10.9688C24.6913 10.9561 24.9493 10.9504 25.2178 10.9453C25.7958 10.9344 26.4247 10.9298 27.0352 10.874C28.1783 10.7695 29.3754 10.476 30.2363 9.51466L30.4033 9.31348C30.8719 8.70938 31.1194 7.90111 31.1904 7.11134C31.2616 6.31943 31.1608 5.48742 30.8721 4.81153C30.2412 3.33432 28.7852 2.75833 27.3662 2.52637C25.9469 2.2944 24.3685 2.37837 23.3359 2.37012L22.832 2.36524V10.1592L22.6572 10.1875L22.8262 10.4229V10.625L22.832 18.9209H21.3242V1.10059C22.1966 1.11953 23.0786 1.09932 23.9434 1.07813C24.7265 1.05895 25.4967 1.04217 26.251 1.0586ZM55.7715 1.0879V2.36427H48.6562V9.36329H55.7715V10.5674H48.6562V17.501H55.7715V18.9121H47.1465V1.0879H55.7715ZM37.6748 1.0879V17.501H43.9785V18.9121H36.2354V1.0879H37.6748ZM16.2666 8.72559C15.6394 4.11974 11.2338 1.12629 6.73047 2.66114H6.72949C3.3729 3.80698 1.78264 7.07539 1.84473 10.2188C1.90694 13.3634 3.62706 16.548 7.06445 17.5137C10.4283 18.4581 14.001 17.0161 15.5488 13.7656L15.5479 13.7647C15.5913 13.6741 15.6868 13.4603 15.7705 13.2568C15.8132 13.153 15.8556 13.0453 15.8887 12.9541C15.9051 12.9089 15.9209 12.8626 15.9336 12.8203C15.9425 12.7906 15.9633 12.7209 15.9688 12.6465L15.9697 12.6377C15.9788 12.4745 15.9228 12.336 15.8838 12.2549C15.8399 12.1637 15.7831 12.0767 15.7266 12C15.6128 11.8456 15.465 11.6843 15.3203 11.5381C15.1752 11.3915 15.0206 11.2477 14.8828 11.126L14.5469 10.8457C12.3093 9.13955 9.42687 9.0041 6.86133 9.37501C9.60416 8.1876 12.8563 8.23285 15.5947 9.51466L15.791 9.09278L16.3066 9.06739V8.74415L16.2666 8.72559Z" stroke="white" stroke-opacity="0.1"/>
</svg>
