<svg width="85" height="23" viewBox="0 0 85 23" fill="none" xmlns="http://www.w3.org/2000/svg">
<path d="M9.87334 0.149965C17.6692 -0.435083 22.8495 5.96947 21.535 13.668C19.5548 25.2623 2.96285 25.5995 0.354102 14.4114C-1.24764 7.53877 2.69928 0.686832 9.87334 0.149965ZM18.8823 10.1853C18.3484 4.83379 13.3303 1.34759 8.22429 3.08897C0.817055 5.61844 1.01305 17.581 8.59262 19.7112C12.3537 20.7677 16.3175 19.1537 18.0341 15.547C18.122 15.3647 18.4701 14.5594 18.4802 14.4217C18.5005 14.0569 17.338 13.0348 17.0136 12.787C14.2934 10.7118 10.6607 10.6912 7.44369 11.2796L5.02755 11.789C8.86296 8.61595 14.4218 8.08941 18.8823 10.1784V10.1853Z" fill="#2565DB"/>
<path d="M24.8804 0.0432811C27.3202 0.149966 29.8715 -0.0943772 32.2978 0.0432811C36.4813 0.2773 39.357 2.26302 39.5496 6.76445C39.7186 10.7634 36.8496 13.6715 32.9838 13.7781L39.384 22.5642H35.6973L28.1211 11.9645C30.5845 11.5756 34.0922 12.3981 35.8595 10.113C36.7989 8.90159 36.9408 6.73003 36.3427 5.32936C35.0823 2.37659 30.4561 2.79301 27.8778 2.77236V11.3967L28.04 11.8888L27.871 12.0471L27.8778 22.5676H25.0021L24.8804 22.4437V0.0432811Z" fill="#2565DB"/>
<path d="M73.8182 0.0432811V15.3474C73.9669 17.9561 74.6968 20.0554 77.5826 20.255C80.972 20.489 81.9283 18.3071 82.0871 15.2648V0.0432811H85V15.8396C84.5877 20.7953 82.1615 23.2869 77.1771 22.9737C72.7841 22.6984 71.0303 19.3636 70.8175 15.2614V0.0432811H73.8182Z" fill="#2565DB"/>
<path d="M67.2558 0.0432811V2.76547H58.7503V9.94091H67.2558V12.5771H58.7503V19.6734H67.2558V22.5573H55.7495V0.0432811H67.2558Z" fill="#2565DB"/>
<path d="M45.622 0.0432811V19.6734H53.036L53.1577 19.7938V22.4334L53.036 22.5573H42.7058V0.0432811H45.622Z" fill="#2565DB"/>
<path d="M73.3184 0.542969V15.3613L73.3193 15.376C73.3949 16.7021 73.6193 17.9868 74.2529 18.9746C74.9104 19.9995 75.9674 20.6445 77.5479 20.7539C79.3645 20.8793 80.6347 20.3543 81.4443 19.291C82.2215 18.2701 82.5062 16.8362 82.5869 15.291V0.542969H84.5V15.8174C84.2972 18.2209 83.6131 19.9353 82.4609 21.0176C81.3133 22.0954 79.6151 22.6258 77.208 22.4746C75.1497 22.3455 73.7537 21.5102 72.833 20.2568C71.8999 18.9864 71.4226 17.2405 71.3174 15.25V0.542969H73.3184ZM9.91113 0.648438C13.6555 0.367548 16.7408 1.7625 18.7383 4.125C20.7395 6.49222 21.6768 9.86602 21.042 13.584C19.1837 24.4633 3.8173 24.9465 0.966797 14.7891L0.84082 14.2979C-0.706978 7.65657 3.10832 1.15752 9.91113 0.648438ZM28.6064 0.53125C29.8548 0.500652 31.0797 0.474483 32.2695 0.541992V0.542969C34.2962 0.65634 35.9408 1.19058 37.0947 2.18262C38.1648 3.10272 38.8664 4.46223 39.0254 6.39258L39.0498 6.78613C39.2063 10.4968 36.5658 13.1791 32.9697 13.2783L32.0205 13.3047L32.5801 14.0723L38.4014 22.0645H35.9551L29.0273 12.3721C29.3767 12.3499 29.7456 12.3393 30.1309 12.332C30.8239 12.3189 31.5714 12.3144 32.2969 12.248C33.6554 12.1237 35.0551 11.7764 36.0596 10.6543L36.2549 10.4189C36.8001 9.7156 37.092 8.76905 37.1758 7.83691C37.2598 6.90241 37.1404 5.92356 36.8027 5.13281C36.0689 3.41381 34.3721 2.73384 32.6855 2.45801C30.9985 2.18215 29.1251 2.28242 27.8818 2.27246L27.3779 2.26855V11.4766L27.4092 11.5703L27.2441 11.5967L27.3945 11.8076L27.3711 11.8301V12.0479L27.3779 22.0674H25.3809V0.556641C26.453 0.583364 27.5388 0.557419 28.6064 0.53125ZM66.7559 0.542969V2.26562H58.25V10.4404H66.7559V12.0771H58.25V20.1738H66.7559V22.0576H56.25V0.542969H66.7559ZM45.1221 0.542969V20.1738H52.6572V22.0576H43.2061V0.542969H45.1221ZM19.3418 9.84082C18.6257 4.35947 13.4006 0.795672 8.0625 2.61621C4.10038 3.96939 2.21451 7.83079 2.28809 11.5596C2.36173 15.2896 4.40006 19.052 8.45703 20.1924C12.436 21.3101 16.6569 19.6032 18.4854 15.7617L18.4844 15.7607C18.535 15.6552 18.6491 15.4012 18.749 15.1582C18.7998 15.0348 18.8498 14.9079 18.8887 14.8008C18.908 14.7475 18.926 14.6937 18.9404 14.6455C18.951 14.6101 18.9728 14.5353 18.9785 14.458L18.9795 14.4492C18.9889 14.2787 18.9307 14.1315 18.8867 14.04C18.8379 13.9385 18.7736 13.8401 18.708 13.751C18.5761 13.5718 18.403 13.3824 18.2314 13.209C17.8878 12.8617 17.4992 12.5286 17.3174 12.3896H17.3164C14.4705 10.2187 10.7335 10.1932 7.51074 10.7607C10.9409 9.0291 15.157 8.98585 18.6699 10.6309L18.8672 10.2109L19.3828 10.1855V9.86035L19.3418 9.84082Z" stroke="white" stroke-opacity="0.1"/>
</svg>
